<svg width="103" height="33" viewBox="0 0 103 33" fill="none" xmlns="http://www.w3.org/2000/svg">
<path d="M5.304 26L0.24 8.72H3.672L6.912 20.6L10.152 8.744L13.584 8.72L16.824 20.6L20.064 8.72H23.496L18.432 26H15.216L11.868 14.336L8.52 26H5.304ZM26.7054 26.312L24.4014 24.272L26.2974 22.112L26.7054 21.752L36.0414 11.216L36.1854 10.952L38.4414 8.408L40.7454 10.472L38.2734 13.256L37.9614 13.472L28.6014 24.056L28.4334 24.344L26.7054 26.312ZM32.3694 26.36C30.6414 26.36 29.1494 25.984 27.8934 25.232C26.6454 24.48 25.6814 23.428 25.0014 22.076C24.3294 20.724 23.9934 19.152 23.9934 17.36C23.9934 15.568 24.3294 13.996 25.0014 12.644C25.6814 11.292 26.6454 10.24 27.8934 9.488C29.1494 8.736 30.6414 8.36 32.3694 8.36C34.0974 8.36 35.5854 8.736 36.8334 9.488C38.0894 10.24 39.0534 11.292 39.7254 12.644C40.4054 13.996 40.7454 15.568 40.7454 17.36C40.7454 19.152 40.4054 20.724 39.7254 22.076C39.0534 23.428 38.0894 24.48 36.8334 25.232C35.5854 25.984 34.0974 26.36 32.3694 26.36ZM32.3694 23.288C33.4654 23.304 34.3774 23.068 35.1054 22.58C35.8334 22.092 36.3774 21.4 36.7374 20.504C37.1054 19.608 37.2894 18.56 37.2894 17.36C37.2894 16.16 37.1054 15.12 36.7374 14.24C36.3774 13.36 35.8334 12.676 35.1054 12.188C34.3774 11.7 33.4654 11.448 32.3694 11.432C31.2734 11.416 30.3614 11.652 29.6334 12.14C28.9054 12.628 28.3574 13.32 27.9894 14.216C27.6294 15.112 27.4494 16.16 27.4494 17.36C27.4494 18.56 27.6294 19.6 27.9894 20.48C28.3574 21.36 28.9054 22.044 29.6334 22.532C30.3614 23.02 31.2734 23.272 32.3694 23.288ZM43.1409 26V8.72H46.4049V15.824H54.1329V8.72H57.3969V26H54.1329V18.872H46.4049V26H43.1409ZM61.0059 26V8.72H64.2699V22.952H71.7099V26H61.0059ZM73.7503 26V8.72H85.0303V11.768H77.0143V15.464H83.5903V18.512H77.0143V22.952H85.0303V26H73.7503ZM87.9066 26V8.72H95.2026C95.3706 8.72 95.5946 8.728 95.8746 8.744C96.1626 8.752 96.4186 8.776 96.6426 8.816C97.6746 8.976 98.5186 9.316 99.1746 9.836C99.8386 10.356 100.327 11.012 100.639 11.804C100.951 12.588 101.107 13.464 101.107 14.432C101.107 15.88 100.747 17.12 100.027 18.152C99.3066 19.176 98.1786 19.808 96.6426 20.048L95.2026 20.144H91.1706V26H87.9066ZM97.6506 26L94.2426 18.968L97.6026 18.32L101.347 26H97.6506ZM91.1706 17.096H95.0586C95.2266 17.096 95.4106 17.088 95.6106 17.072C95.8106 17.056 95.9946 17.024 96.1626 16.976C96.6026 16.856 96.9426 16.656 97.1826 16.376C97.4226 16.088 97.5866 15.772 97.6746 15.428C97.7706 15.076 97.8186 14.744 97.8186 14.432C97.8186 14.12 97.7706 13.792 97.6746 13.448C97.5866 13.096 97.4226 12.78 97.1826 12.5C96.9426 12.212 96.6026 12.008 96.1626 11.888C95.9946 11.84 95.8106 11.808 95.6106 11.792C95.4106 11.776 95.2266 11.768 95.0586 11.768H91.1706V17.096Z" fill="white"/>
</svg>
