<?xml version="1.0" encoding="UTF-8"?>
<svg id="Layer_2" data-name="Layer 2" xmlns="http://www.w3.org/2000/svg" viewBox="0 0 977.32 960.16">
  <defs>
    <style>
      .cls-1 {
        fill: #ebebeb;
        stroke-width: 0px;
      }
    </style>
  </defs>
  <g id="Layer_1-2" data-name="Layer 1">
    <g>
      <path class="cls-1" d="M683.17,830.51c3.77,6.85,7.55,13.7,11.66,21.17-19.95,11.52-39.91,23.05-60.41,34.89-3.32-5.7-6.48-11.11-9.63-16.54-3.68-6.34-7.52-12.6-10.92-19.09-1.66-3.17-3.24-3.72-6.63-2.45-18.72,7.01-37.55,13.75-56.34,20.58-.77.28-1.56.52-2.76.92-.63-1.39-1.29-2.65-1.78-3.98-4.3-11.73-8.72-23.43-12.76-35.25-1.19-3.49-2.71-4.03-6.17-3.38-18.01,3.36-36.07,6.42-54.8,9.71-2.74-15.35-5.45-30.52-8.24-46.14h-52.78v-47.67c-15.05-2.69-29.74-5.31-44.9-8.01,2.08-11.93,4.05-23.54,6.13-35.13q2.21-12.38-9.62-16.68c-7.52-2.73-15.02-5.5-22.52-8.26-.3-.11-.55-.34-1.33-.84,2.32-6.38,4.68-12.89,7.05-19.4,2.56-7.05,4.91-14.18,7.79-21.1,1.57-3.77,1.23-5.81-2.67-7.82-7.39-3.8-14.47-8.21-22.13-12.64,4.74-8.25,9.35-16.29,13.97-24.32,2.99-5.2,5.89-10.46,9.05-15.55,1.43-2.32,1.18-3.73-.95-5.42-5.08-4.03-9.97-8.3-15.16-12.65,10.75-12.84,21.33-25.46,32.16-38.39-3.21-3.94-6.34-7.78-9.69-11.89.94-1.22,1.88-2.44,3.1-4.02h-9.42c1.08,6.38,2.13,12.56,3.28,19.39-13.56,2.43-26.91,4.83-40.99,7.36,3.14,8.7,6.14,17.03,9.28,25.74-13.37,4.88-26.31,9.61-39.79,14.53,5.84,10.14,11.46,19.91,17.37,30.17-12.38,7.17-24.55,14.21-37.22,21.54,9.16,10.96,17.98,21.51,27.07,32.39-11.13,9.36-22.05,18.54-33.41,28.1,12.75,10.72,25.2,21.18,37.96,31.91-9.45,11.32-18.79,22.5-28.42,34.02,16.66,9.63,32.78,18.95,49.35,28.52-7.48,12.98-14.77,25.63-22.46,38.97,20.22,7.37,40.13,14.64,60.54,22.08-8.05,22.12-15.94,43.81-23.92,65.76-22.05-8.03-43.76-15.93-65.76-23.94,4.76-13.09,9.22-25.81,14.07-38.37,1.4-3.62.55-5.16-2.65-6.98-18.4-10.43-36.67-21.08-55.4-31.9,7.67-13.31,15.21-26.39,23.07-40.03-15.59-13.11-31.07-26.14-46.95-39.49,10.03-11.98,19.83-23.7,30.06-35.92-11.42-13.64-22.81-27.24-34.62-41.34,2.41-2.05,4.63-3.96,6.87-5.84,8.81-7.39,17.55-14.87,26.48-22.11,2.47-2,2.62-3.55,1.04-6.21-7.11-12.02-14.02-24.16-21.29-36.76,13.93-8.06,27.58-15.95,41.68-24.1-4.39-12.12-8.74-24.13-13.33-36.8,3.66-1.34,7.2-2.65,10.74-3.93,10.33-3.76,20.63-7.63,31.03-11.21,3.07-1.06,4.12-2.37,3.44-5.72-1.78-8.79-3.16-17.66-4.81-27.08,9.41-1.69,18.54-3.33,27.67-4.96,5.74-1.02,11.46-2.18,17.24-2.97,2.88-.39,3.95-1.44,3.85-4.43-.21-6.64-.07-13.3-.07-20.42h49.96c1.09-5.68,2.11-11,3.2-16.7,3.59.5,6.98.96,11.46,1.58-3.73-4.51-6.84-8.28-10.36-12.53-4.65,5.49-9.03,10.66-13.62,16.08-10.65-8.92-21.09-17.65-32-26.79-4.87,8.33-9.52,16.28-14.36,24.56-12.3-7.09-24.23-13.96-36.75-21.18-4.17,11.41-8.15,22.29-12.31,33.69-13.41-4.86-26.51-9.61-40.46-14.67-2.59,14.3-5.11,28.25-7.7,42.54-14.54-2.53-28.57-4.96-42.98-7.47v50.5h-44.54c3.38,19.33,6.64,37.98,10.03,57.34-14.78,2.65-29.27,5.25-44.33,7.94,7.47,20.58,14.79,40.73,22.34,61.52-21.8,7.94-43.45,15.83-65.73,23.95-7.97-21.88-15.82-43.42-23.87-65.51,1.55-.67,2.98-1.36,4.46-1.91,10.95-4.01,21.83-8.26,32.92-11.85,4.6-1.49,5.21-3.6,4.39-7.94-3.68-19.48-7.03-39.02-10.47-58.54-.23-1.29-.27-2.62-.45-4.39,15.01-2.68,29.86-5.33,44.99-8.03v-62.23h46.89c3.25-18.29,6.42-36.09,9.67-54.37,15.71,2.74,31.06,5.42,46.7,8.15,5.46-14.97,10.81-29.65,16.31-44.7,12.44,4.53,24.62,8.95,36.79,13.38q8.4,3.06,12.74-4.48c5.16-8.93,10.33-17.86,15.77-27.27,14.05,8.09,27.87,16.04,42.21,24.29,6.94-8.23,13.87-16.45,21.13-25.06,10.45,8.75,20.64,17.26,30.8,25.81q7.07,5.94,14.25-.13c3.69-3.12,7.42-6.2,11.14-9.28.25-.2.59-.29,1.38-.66,7.06,8.38,14.21,16.87,21.35,25.36,2.36,2.81,4.98,5.44,6.98,8.49,2.53,3.84,5.04,3.82,8.54,1.34,3.11-2.2,6.6-3.88,10.49-6.12,2.83,4.67,5.62,9.28,9.21,15.2,1.45-8.08,2.67-14.82,3.98-22.09h-22.15v-41.98c-9.9,1.71-19.22,3.33-29.09,5.03-2.47-13.83-4.89-27.37-7.47-41.79-11.67,4.18-22.98,8.24-34.72,12.44-4.97-13.6-9.81-26.83-14.82-40.53-13.05,7.52-25.57,14.74-38.41,22.14-7.33-12.67-14.48-25.04-21.95-37.97-13.29,11.13-26.26,21.99-39.66,33.21-9.51-11.3-18.8-22.34-28.66-34.04-12.68,15.08-25.14,29.92-38.04,45.26-11.44-9.58-22.74-19.04-34.63-29-11.16,19.32-22.1,38.25-33.3,57.64-20.33-11.73-40.32-23.27-60.61-34.99,11.69-20.26,23.17-40.15,34.96-60.57,13.28,7.63,26.36,15.14,39.39,22.62,15.24-18.16,30.3-36.11,45.55-54.28,10.61,8.9,21.07,17.43,31.2,26.33,3.22,2.83,5.13,2.61,8.27-.1,13.37-11.54,27-22.79,40.54-34.13,1.26-1.05,2.55-2.06,4-3.24,8.93,10.64,17.83,21.01,26.41,31.63,2.57,3.18,4.39,3.83,8.13,1.56,12.97-7.86,26.2-15.27,39.34-22.84,1.41-.81,2.87-1.55,4.74-2.56,5.94,10.29,11.76,20.35,17.57,30.41q6.04,10.47,17.32,6.38c11.4-4.15,22.8-8.3,34.46-12.55,5.5,15.07,10.87,29.76,16.44,45.04,13.46-2.34,26.84-4.66,40.63-7.05,2.84,15.94,5.63,31.65,8.51,47.83h33.74v49.24c8.75,1.6,17.21,3.14,26.15,4.77-2.17,12.43-4.23,24.52-6.39,36.6-2.24,12.51-2.28,12.5,9.47,16.78,1.87.68,3.71,1.42,6.11,2.35-2.51,7.08-4.98,14.02-7.44,20.96.28.25.56.5.84.74,7.68-4.44,15.36-8.87,23.51-13.58-5.06-6.08-9.79-11.77-14.82-17.81,10.72-9.02,21.13-17.78,32.11-27.01-7.91-6.67-15.48-13.05-23.38-19.7,9.15-10.93,18.1-21.62,27.37-32.7-11.09-6.43-21.72-12.58-32.86-19.04,7.14-12.39,14.17-24.59,21.6-37.48-14.24-5.22-28.2-10.35-42.6-15.63,4.96-13.71,9.82-27.13,14.94-41.26-17.33-3.09-34.27-6.11-51.92-9.26,2.54-14.6,5.03-28.96,7.62-43.83h-60.04v-45.38c-22.46,3.93-44.35,7.77-66.76,11.69-4.07-23.1-8.08-45.81-12.15-68.89,23.11-4.07,45.69-8.05,68.87-12.14,3.09,17.32,6.11,34.25,9.12,51.17.2-.03.41-.05.61-.08.1-1.98.2-3.96.31-6.21h69.78v45.67c21.22,3.76,42.03,7.44,63.58,11.26-2.64,15.28-5.26,30.42-7.94,45.91,18,6.57,35.62,13,53.61,19.57-5.43,14.96-10.7,29.47-16.11,44.39,14.31,8.28,28.4,16.43,43.04,24.9-7.99,13.86-15.84,27.49-23.9,41.48,10.81,9.09,21.37,17.97,32.38,27.23-10.35,12.36-20.58,24.57-31.15,37.21,7.45,8.9,14.8,17.67,22.39,26.75-12.48,10.5-24.81,20.88-37.63,31.67,4.54,7.89,8.98,15.62,13.71,23.83-14.49,8.38-28.69,16.59-43.12,24.94,2.27,6.3,4.41,12.23,6.8,18.87-9.1,3.35-18.04,6.65-28.13,10.37,11.5,4.19,21.77,7.93,32.74,11.93,1.45-7.96,2.84-15.58,4.34-23.79,13.76,2.38,27.31,4.73,41.41,7.17v-31.55h42.8c-2.27-13.08-4.44-25.63-6.67-38.52,14.27-2.55,28.16-5.03,42.66-7.62-5.3-14.64-10.44-28.83-15.8-43.61,13.64-5,27.15-9.96,41.34-15.17-9.07-15.73-17.92-31.08-26.89-46.64,12.87-7.44,25.4-14.68,38.69-22.37-13.11-15.65-25.99-31.02-39.34-46.96,11.47-9.65,22.84-19.22,34.69-29.19-17.73-14.89-35.01-29.42-52.58-44.17,15.04-17.92,29.79-35.51,44.97-53.6,17.87,14.99,35.55,29.82,53.6,44.96-12.32,14.72-24.4,29.16-36.49,43.61.2.19.41.38.61.57,2.81-2.25,5.62-4.49,8.86-7.07,14.94,17.8,29.77,35.47,44.89,53.48-6.96,5.86-13.68,11.54-20.42,17.2-3.06,2.57-6.16,5.1-9.2,7.71-6.6,5.67-5.86,3.86-2,10.62,9.58,16.78,19.29,33.47,29.29,50.79-13.37,7.75-26.56,15.39-40.24,23.32,6.56,18.08,13.08,36.02,19.76,54.43-1.68.73-3.12,1.43-4.62,1.98-11.11,4.07-22.14,8.38-33.39,12.01-4.97,1.6-6.31,3.66-5.23,8.85,2.78,13.37,4.9,26.87,7.27,40.33.17.95.18,1.93.3,3.27-15.56,2.77-30.92,5.51-46.6,8.3v43.12h-48.56c-2.16,11.98-4.25,23.54-6.44,35.68-16.17-2.82-32.02-5.58-48.28-8.41-3.27,8.89-6.47,17.58-9.85,26.77-15.63-5.66-30.92-11.2-46.64-16.9-3.58,6.06-7.1,12.02-10.77,18.22-10.13-5.84-20-11.51-31.17-17.95,4.94,13.59,9.36,25.72,14.03,38.58,7.4-4.24,14.41-8.26,21.95-12.58,6.97,12.05,13.85,23.94,21.1,36.47,8.43-7.02,16.55-13.79,25.11-20.92,9.13,10.85,18.19,21.62,27.56,32.75,8.7-10.34,17.03-20.25,25.81-30.67,11.09,9.28,21.99,18.4,33.35,27.91,8-13.84,15.72-27.2,23.77-41.11,12.66,7.29,25.13,14.46,38.25,22.01,6.36-17.41,12.55-34.36,18.83-51.57,14.09,5.11,27.8,10.09,42.08,15.27,3.67-20.66,7.23-40.75,10.89-61.33,14.88,2.59,29.43,5.13,44.49,7.75v-69.31h69.96v69.59h-63.81c-.02.25-.04.51-.06.76,5.98,1.11,11.96,2.22,18.32,3.41-4.08,23.11-8.09,45.82-12.15,68.8-15.3-2.67-30.01-5.25-45.06-7.88-7.61,20.86-15.13,41.46-22.84,62.59-14.62-5.3-28.81-10.45-43.61-15.82-9.84,17.02-19.64,33.96-29.65,51.28-13.65-7.86-27.01-15.55-40.77-23.47-11.16,13.27-22.17,26.37-33.35,39.66-12.26-10.26-24.24-20.29-36.56-30.61-11.35,9.5-22.54,18.86-34.07,28.5-8.18-9.73-16.11-19.13-23.99-28.56q-7.08-8.47-16.68-2.93c-7.33,4.23-14.67,8.45-22.51,12.97-4.24-7.33-8.31-14.35-12.37-21.37-3.42-5.91-6.94-11.77-10.19-17.78-1.39-2.57-2.83-3.09-5.58-2.03-7.9,3.06-15.9,5.84-24.23,8.87-5.1-13.98-10.24-27.51-14.9-41.21-1.46-4.3-3.13-5.83-7.78-4.54-5.08,1.41-10.42,1.88-16.21,2.85-2.95-16.58-5.83-32.75-8.82-49.51-5.72,1.1-11.96-2.28-17.93,3.19,5.78,3.44,10.86,6.46,16.55,9.84-6.84,11.88-13.62,23.64-20.73,36,8.22,3.02,16.14,5.92,24.73,9.07-4.8,13.23-9.53,26.28-14.4,39.7,11.24,2.03,22,3.97,33.18,5.99-2.47,14.15-4.86,27.9-7.35,42.15h41.06v43.71c16.15-2.82,31.7-5.54,47.9-8.37,2.56,14.28,5.1,28.45,7.79,43.51,17.53-6.36,34.66-12.58,52.56-19.08,5.09,13.92,10.14,27.72,15.43,42.15,18.48-10.66,36.47-21.03,54.73-31.57,7.91,13.33,15.69,26.44,23.47,39.55l-.12-.13ZM504.18,571.09c-6.35,4.97-6.89,6.4-4.4,12.2,4.88-1.76,9.78-3.53,15.6-5.64-4.41-2.59-7.83-4.59-11.2-6.57ZM549.99,514.06c-.18.55-.36,1.11-.53,1.66,2.37,1.6,4.73,3.19,7.52,5.08,1.37-3.79,2.44-6.74,3.88-10.73-4.48,1.64-7.67,2.82-10.87,3.99Z"/>
      <path class="cls-1" d="M398.1,960.16c-23.18-4.09-45.76-8.07-68.92-12.15,4.06-23.06,8.06-45.74,12.14-68.91,23.08,4.06,45.64,8.03,68.9,12.12-4.02,22.87-8.01,45.54-12.12,68.94Z"/>
      <path class="cls-1" d="M114.6,706.33c-20.33,11.74-40.34,23.29-60.62,34.99-11.7-20.26-23.17-40.14-34.99-60.61,20.2-11.67,40.17-23.2,60.61-35,11.74,20.32,23.28,40.32,35,60.62Z"/>
      <path class="cls-1" d="M705.01,42.74c20.47,11.82,40.22,23.22,60.61,34.99-11.65,20.18-23.16,40.13-34.98,60.61-20.29-11.71-40.27-23.24-60.62-34.98,11.71-20.29,23.27-40.3,34.99-60.62Z"/>
      <path class="cls-1" d="M683.3,830.64c2.05-1.93,4.02-3.96,6.17-5.77,15.77-13.29,31.58-26.53,47.57-39.95,15.03,17.91,29.88,35.61,44.99,53.62-17.9,15.02-35.58,29.85-53.6,44.96-5.74-6.82-11.19-13.28-16.63-19.75-8.35-9.94-16.68-19.9-25.07-29.82-1.05-1.24-2.36-2.27-3.55-3.41,0,0,.11.12.11.12Z"/>
      <path class="cls-1" d="M23.92,266.23c22.02,8.02,43.72,15.92,65.76,23.94-7.99,21.96-15.83,43.52-23.92,65.75-21.91-7.97-43.55-15.84-65.76-23.92,8.02-22.05,15.9-43.73,23.92-65.78Z"/>
      <path class="cls-1" d="M977.32,451.61c-23.09,4.07-45.68,8.05-68.91,12.15-4.06-22.99-8.07-45.69-12.18-68.91,23.12-4.08,45.82-8.08,68.92-12.16,4.08,23.1,8.07,45.7,12.17,68.91Z"/>
      <path class="cls-1" d="M348.19,0c8,21.98,15.85,43.55,23.94,65.77-21.91,7.98-43.57,15.86-65.75,23.94-8-21.95-15.85-43.5-23.95-65.75,21.8-7.94,43.47-15.84,65.77-23.96Z"/>
    </g>
  </g>
</svg>